<svg width="12" height="12" viewBox="0 0 12 12" fill="none" xmlns="http://www.w3.org/2000/svg">
<circle cx="6" cy="6" r="6" fill="white"/>
<path d="M9.48535 3.74C9.48182 3.68416 9.45966 3.63111 9.4224 3.58935C9.38515 3.5476 9.33497 3.51955 9.27988 3.50969C7.92832 3.26719 7.3641 3.09188 6.10285 2.52219C6.0705 2.50756 6.03539 2.5 5.99988 2.5C5.96438 2.5 5.92927 2.50756 5.89692 2.52219C4.63567 3.09188 4.07145 3.26719 2.71988 3.50969C2.6648 3.51955 2.61462 3.5476 2.57737 3.58935C2.54011 3.63111 2.51795 3.68416 2.51442 3.74C2.45426 4.69485 2.58254 5.58453 2.89613 6.38438C3.15293 7.0368 3.53298 7.63366 4.01551 8.14235C4.85098 9.02875 5.73801 9.41375 5.90723 9.48188C5.96736 9.5062 6.0346 9.5062 6.09473 9.48188C6.26395 9.41375 7.15098 9.02875 7.98645 8.14235C8.46819 7.63347 8.84749 7.03662 9.10363 6.38438C9.41723 5.58453 9.54551 4.69485 9.48535 3.74ZM7.43848 4.9136L5.70723 6.9136C5.68497 6.93939 5.65767 6.96035 5.62701 6.97521C5.59635 6.99007 5.56298 6.99851 5.52895 7H5.51863C5.4532 7.00002 5.39038 6.97438 5.34363 6.9286L4.57488 6.17547C4.55143 6.15249 4.53273 6.12511 4.51986 6.09491C4.50699 6.0647 4.50019 6.03225 4.49986 5.99942C4.49918 5.93311 4.52488 5.86924 4.57129 5.82188C4.6177 5.77451 4.68103 5.74752 4.74734 5.74685C4.81366 5.74617 4.87752 5.77187 4.92488 5.81828L5.50301 6.38531L7.06082 4.58641C7.10421 4.53627 7.16574 4.50541 7.23188 4.50064C7.29801 4.49586 7.36334 4.51755 7.41348 4.56094C7.46362 4.60433 7.49447 4.66586 7.49925 4.73199C7.50403 4.79813 7.48234 4.86345 7.43895 4.9136H7.43848Z" fill="url(#paint0_linear_2155_2039)"/>
<defs>
<linearGradient id="paint0_linear_2155_2039" x1="5.99988" y1="2.5" x2="5.99988" y2="9.50012" gradientUnits="userSpaceOnUse">
<stop stop-color="#09CCD3"/>
<stop offset="1" stop-color="#00BCC3"/>
</linearGradient>
</defs>
</svg>
