<svg width="20" height="20" viewBox="0 0 20 20" fill="none" xmlns="http://www.w3.org/2000/svg">
<path d="M0 10C0 4.47715 4.47715 0 10 0V0C15.5228 0 20 4.47715 20 10V10C20 15.5228 15.5228 20 10 20V20C4.47715 20 0 15.5228 0 10V10Z" fill="#66D7DB"/>
<path d="M12.0776 13.9208L11.9379 14.492C11.5187 14.6575 11.1839 14.7834 10.9345 14.87C10.6849 14.9568 10.3949 15 10.0645 15C9.55702 15 9.16231 14.8757 8.8808 14.6288C8.59929 14.3809 8.45849 14.0667 8.45849 13.6857C8.45849 13.5381 8.46871 13.3864 8.48995 13.2318C8.51137 13.077 8.54543 12.9027 8.59203 12.7079L9.11589 10.8537C9.16249 10.6762 9.2021 10.5079 9.23383 10.3489C9.26601 10.1908 9.28151 10.0453 9.28151 9.91436C9.28151 9.67758 9.23249 9.51195 9.13489 9.41883C9.03728 9.32598 8.85104 9.27884 8.57455 9.27884C8.43913 9.27884 8.29994 9.30053 8.15807 9.34247C8.01557 9.3846 7.89377 9.42528 7.7915 9.46311L7.93159 8.89148C8.27476 8.75176 8.60279 8.63211 8.91656 8.53281C9.23034 8.43323 9.52681 8.3834 9.80725 8.3834C10.3112 8.3834 10.7001 8.5052 10.9732 8.7488C11.2463 8.99258 11.3828 9.30859 11.3828 9.69801C11.3828 9.77858 11.3738 9.92055 11.3545 10.1235C11.3357 10.3268 11.3007 10.5131 11.2496 10.6826L10.728 12.5293C10.6852 12.6777 10.6468 12.8472 10.6133 13.038C10.5788 13.2276 10.5623 13.3724 10.5623 13.4696C10.5623 13.7148 10.617 13.8822 10.7266 13.9712C10.837 14.0602 11.0272 14.1045 11.2973 14.1045C11.4242 14.1045 11.5685 14.082 11.7288 14.0378C11.8887 13.9936 12.0053 13.9548 12.0776 13.9208ZM12.2099 6.1678C12.2099 6.48955 12.0886 6.76434 11.845 6.99028C11.6019 7.21703 11.309 7.3305 10.9664 7.3305C10.6227 7.3305 10.329 7.21703 10.0832 6.99028C9.83781 6.76425 9.71485 6.48955 9.71485 6.1678C9.71485 5.84668 9.83781 5.57144 10.0832 5.34263C10.3286 5.11418 10.6227 5 10.9664 5C11.3089 5 11.6019 5.11445 11.845 5.34263C12.0888 5.57144 12.2099 5.84677 12.2099 6.1678Z" fill="white"/>
<path d="M10 19C5.02944 19 1 14.9706 1 10H-1C-1 16.0751 3.92487 21 10 21V19ZM19 10C19 14.9706 14.9706 19 10 19V21C16.0751 21 21 16.0751 21 10H19ZM10 1C14.9706 1 19 5.02944 19 10H21C21 3.92487 16.0751 -1 10 -1V1ZM10 -1C3.92487 -1 -1 3.92487 -1 10H1C1 5.02944 5.02944 1 10 1V-1Z" fill="#66D7DB"/>
</svg>
