<svg viewBox="0 0 20 20" fill="none" xmlns="http://www.w3.org/2000/svg">
<path fill-rule="evenodd" clip-rule="evenodd" d="M5.17486 9.24891C6.4095 11.5844 8.41558 13.5905 10.7511 14.8251C11.0466 14.5983 11.3279 14.3572 11.6219 14.1266C11.8472 13.9495 12.0946 13.7703 12.3849 13.7237C12.4875 13.7068 12.5916 13.7068 12.6942 13.7221C13.5973 13.857 14.5295 14.0653 15.3813 14.3968C16.1803 14.7056 17.1653 15.2264 17.4831 16.0798C17.5751 16.3278 17.6042 16.5906 17.5735 16.8518C17.4435 17.9442 17.0527 19.0884 16.037 19.6537C15.3554 20.0322 14.5549 20.0582 13.8035 19.9318C12.8798 19.7779 11.9545 19.3903 11.1286 18.9568C10.116 18.4275 9.15107 17.7755 8.24638 17.0771C7.25127 16.3104 6.30692 15.4707 5.41756 14.5829C4.52979 13.6946 3.6896 12.7492 2.92292 11.7536C2.22496 10.8489 1.57249 9.88394 1.04321 8.87191C0.609632 8.04547 0.222058 7.12016 0.0681914 6.19643C-0.0581799 5.44508 -0.0322712 4.64455 0.346843 3.96299C0.911548 2.94726 2.05576 2.55652 3.14816 2.42856C3.40937 2.39578 3.67268 2.42486 3.92014 2.51686C5.44981 3.08579 6.06422 5.87178 6.27784 7.30628C6.29317 7.41044 6.29317 7.51249 6.27625 7.61507C6.23025 7.90535 6.051 8.15281 5.87334 8.37806C5.64281 8.67204 5.40381 8.95387 5.17486 9.24891Z" fill="#00BCC3"/>
<path d="M10.6691 1.39114C10.2858 1.39061 9.97486 1.07654 9.97592 0.693193C9.97645 0.310377 10.2905 -0.000528077 10.6739 6.73428e-07C13.2489 0.000529424 15.5833 1.04481 17.27 2.73153C18.9562 4.41771 20 6.75162 20.001 9.32716C20.0016 9.7105 19.6907 10.0241 19.3073 10.0251C18.9245 10.0256 18.6104 9.71473 18.6094 9.33192C18.6088 7.14183 17.7195 5.15532 16.2829 3.7187C14.8457 2.28156 12.8587 1.3922 10.6691 1.39114Z" fill="#00BCC3"/>
<path d="M10.6739 4.17555C10.2873 4.1766 9.97327 3.86253 9.97327 3.47865C9.97327 3.09425 10.2873 2.7807 10.6712 2.7807C12.4843 2.78335 14.1203 3.51672 15.302 4.69795C16.4832 5.87971 17.2172 7.51672 17.2182 9.32082C17.2203 9.71315 16.9062 10.0272 16.5224 10.0272C16.1385 10.0272 15.8244 9.71315 15.8244 9.32928C15.825 7.90588 15.247 6.61732 14.3148 5.68513C13.3837 4.754 12.0946 4.17555 10.6739 4.17555Z" fill="#00BCC3"/>
<path d="M10.6739 6.95412C10.2905 6.95465 9.97645 6.64375 9.97592 6.2604C9.97486 5.87706 10.2858 5.56351 10.6691 5.56245C11.7113 5.56192 12.6562 5.98387 13.3367 6.6649C14.0172 7.34487 14.4391 8.28922 14.4386 9.33192C14.4375 9.71473 14.1234 10.0256 13.7401 10.0251C13.3573 10.024 13.0464 9.7105 13.0469 9.32716C13.048 8.67627 12.7804 8.08248 12.3495 7.65208C11.9186 7.22062 11.3242 6.95307 10.6739 6.95412Z" fill="#00BCC3"/>
</svg>
