<svg width="30" height="30" viewBox="0 0 30 30" fill="none" xmlns="http://www.w3.org/2000/svg">
<rect width="30" height="30" fill="none"/>
<path d="M15 5C9.48625 5 5 9.48625 5 15C5 16.9225 5.53875 18.7688 6.56 20.36L5.045 24.1425C4.9525 24.375 5.00625 24.64 5.18375 24.8175C5.3025 24.9363 5.4625 25 5.625 25C5.70375 25 5.78125 24.985 5.8575 24.955L9.64 23.44C11.2312 24.4613 13.0775 25 15 25C20.5138 25 25 20.5138 25 15C25 9.48625 20.5138 5 15 5ZM15 23.75C13.2175 23.75 11.5113 23.2225 10.0675 22.2238C9.9625 22.15 9.8375 22.1125 9.7125 22.1125C9.63375 22.1125 9.555 22.1275 9.48 22.1575L6.7475 23.2525L7.8425 20.52C7.92 20.325 7.895 20.1038 7.77625 19.9325C6.7775 18.4888 6.25 16.7825 6.25 15C6.25 10.175 10.175 6.25 15 6.25C19.825 6.25 23.75 10.175 23.75 15C23.75 19.825 19.825 23.75 15 23.75Z" fill="#00BCC3"/>
<path d="M15.625 16.25H10.625C10.28 16.25 10 16.53 10 16.875C10 17.22 10.28 17.5 10.625 17.5H15.625C15.97 17.5 16.25 17.22 16.25 16.875C16.25 16.53 15.97 16.25 15.625 16.25Z" fill="#00BCC3"/>
<path d="M19.375 12.5H10.625C10.28 12.5 10 12.78 10 13.125C10 13.47 10.28 13.75 10.625 13.75H19.375C19.72 13.75 20 13.47 20 13.125C20 12.78 19.72 12.5 19.375 12.5Z" fill="#00BCC3"/>
</svg>
