<svg viewBox="0 0 44 32" fill="none" xmlns="http://www.w3.org/2000/svg">
<path d="M5.83891 20.3223C9.06827 20.3223 11.6779 22.9318 11.6779 26.1612C11.6779 29.3906 9.06827 32.0001 5.83891 32.0001C2.60955 32.0001 -2.76566e-05 29.3906 -2.76566e-05 26.1612C-2.76566e-05 22.9318 2.60955 20.3223 5.83891 20.3223ZM5.83891 30.1734C8.05706 30.1734 9.81853 28.3794 9.81853 26.1938C9.81853 23.9757 8.02444 22.2142 5.83891 22.2142C3.62077 22.2142 1.8593 24.0083 1.8593 26.1938C1.8593 28.3794 3.65339 30.1734 5.83891 30.1734Z" fill="#2F2F2F"/>
<path d="M5.83898 21.1699C8.61166 21.1699 10.8624 23.4207 10.8624 26.1934C10.8624 28.966 8.61166 31.2168 5.83898 31.2168C3.06631 31.2168 0.815546 28.966 0.815546 26.1934C0.815546 23.4207 3.06631 21.1699 5.83898 21.1699ZM5.83898 30.0751C7.99189 30.0751 9.72074 28.3463 9.72074 26.1934C9.72074 24.0405 7.99189 22.3116 5.83898 22.3116C3.68608 22.3116 1.95724 24.0405 1.95724 26.1934C1.95724 28.3136 3.7187 30.0751 5.83898 30.0751Z" fill="#434343"/>
<path d="M5.83876 22.0835C8.12214 22.0835 9.94885 23.9102 9.94885 26.1936C9.94885 28.477 8.12214 30.3037 5.83876 30.3037C3.55538 30.3037 1.72867 28.477 1.72867 26.1936C1.72867 23.9102 3.588 22.0835 5.83876 22.0835ZM5.83876 29.6187C7.73071 29.6187 9.29646 28.0855 9.29646 26.161C9.29646 24.269 7.76333 22.7033 5.83876 22.7033C3.94681 22.7033 2.38106 24.2364 2.38106 26.161C2.41368 28.0855 3.94681 29.6187 5.83876 29.6187Z" fill="#E0E0E0"/>
<path d="M3.97948 23.2905L4.89284 24.8889C5.1538 24.6932 5.47999 24.5627 5.83881 24.5627C6.26287 24.5627 6.68692 24.7258 6.9805 25.0194H9.10079C9.19865 25.313 9.26389 25.6718 9.29651 25.998H7.4698C7.4698 26.0632 7.4698 26.1284 7.4698 26.1611C7.4698 26.9113 6.9805 27.5311 6.29549 27.7268L5.25166 29.5535C4.92546 29.4883 4.59926 29.3904 4.30568 29.2273L5.21904 27.629C4.6645 27.368 4.24044 26.8135 4.24044 26.1611C4.24044 26.0306 4.27306 25.9001 4.30568 25.7696L3.26185 23.9429C3.42495 23.682 3.6859 23.4862 3.97948 23.2905Z" fill="#BFBFBF"/>
<path d="M5.83918 30.0754C7.14397 30.0754 8.3509 29.423 9.06854 28.3465C9.10116 28.2813 9.10116 28.2161 9.03592 28.1508C8.97068 28.1182 8.90544 28.1182 8.8402 28.1834C8.15519 29.1947 7.04611 29.7818 5.83918 29.7818C5.51298 29.7818 5.18679 29.7492 4.86059 29.6513C4.79535 29.6187 4.73011 29.6839 4.69749 29.7492C4.66487 29.8144 4.73011 29.8797 4.79535 29.9123C5.15417 30.0428 5.48036 30.0754 5.83918 30.0754Z" fill="white"/>
<path opacity="0.3" d="M10.8951 23.2252C10.0796 23.2578 8.80748 23.2905 7.43745 23.1274C6.94815 22.8664 6.39361 22.7359 5.83908 22.7359C5.7086 22.7359 5.57812 22.7359 5.44764 22.7685C4.37119 22.475 3.35998 22.0509 2.51186 21.3985C3.45784 20.7461 4.59953 20.3547 5.8717 20.3547C7.99198 20.322 9.88393 21.4964 10.8951 23.2252Z" fill="black"/>
<path d="M5.8391 27.2049C6.39364 27.2049 6.88293 26.7482 6.88293 26.161C6.88293 25.5739 6.42626 25.1172 5.8391 25.1172C5.28456 25.1172 4.79527 25.5739 4.79527 26.161C4.79527 26.7482 5.28456 27.2049 5.8391 27.2049Z" fill="#E0E0E0"/>
<path d="M5.8391 27.2049C6.39364 27.2049 6.88293 26.7482 6.88293 26.161C6.88293 25.5739 6.42626 25.1172 5.8391 25.1172C5.28456 25.1172 4.79527 25.5739 4.79527 26.161C4.79527 26.7482 5.28456 27.2049 5.8391 27.2049Z" fill="#E0E0E0"/>
<path d="M37.8394 20.3223C41.0688 20.3223 43.6783 22.9318 43.6783 26.1612C43.6783 29.3906 41.0688 32.0001 37.8394 32.0001C34.61 32.0001 32.0005 29.3906 32.0005 26.1612C32.0005 22.9318 34.61 20.3223 37.8394 20.3223ZM37.8394 30.1734C40.0249 30.1734 41.819 28.3794 41.819 26.1938C41.819 23.9757 40.0249 22.1816 37.8394 22.1816C35.6539 22.1816 33.8598 23.9757 33.8598 26.1612C33.8272 28.3793 35.6213 30.1734 37.8394 30.1734Z" fill="#2F2F2F"/>
<path d="M37.8395 21.1699C40.6122 21.1699 42.8629 23.4207 42.8629 26.1934C42.8629 28.966 40.6122 31.2168 37.8395 31.2168C35.0668 31.2168 32.816 28.966 32.816 26.1934C32.816 23.4207 35.0668 21.1699 37.8395 21.1699ZM37.8395 30.0751C39.9924 30.0751 41.7212 28.3463 41.7212 26.1934C41.7212 24.0405 39.9924 22.3116 37.8395 22.3116C35.6866 22.3116 33.9577 24.0405 33.9577 26.1934C33.9577 28.3136 35.6866 30.0751 37.8395 30.0751Z" fill="#434343"/>
<path d="M37.8393 22.0835C40.1226 22.0835 41.9493 23.9102 41.9493 26.1936C41.9493 28.477 40.1226 30.3037 37.8393 30.3037C35.5559 30.3037 33.7292 28.477 33.7292 26.1936C33.7292 23.9102 35.5559 22.0835 37.8393 22.0835ZM37.8393 29.6187C39.7312 29.6187 41.2969 28.0855 41.2969 26.161C41.2969 24.269 39.7638 22.7033 37.8393 22.7033C35.9473 22.7033 34.3816 24.2364 34.3816 26.161C34.3816 28.0855 35.9147 29.6187 37.8393 29.6187Z" fill="#E0E0E0"/>
<path d="M35.9473 23.2905L36.8606 24.8889C37.1216 24.6932 37.4478 24.5627 37.8066 24.5627C38.2306 24.5627 38.6547 24.7258 38.9483 25.0194H41.0686C41.1664 25.313 41.2317 25.6718 41.2643 25.998H39.4376C39.4376 26.0632 39.4376 26.1284 39.4376 26.1611C39.4376 26.9113 38.9483 27.5311 38.2633 27.7268L37.2194 29.5535C36.8932 29.4883 36.567 29.3904 36.2735 29.2273L37.1868 27.629C36.6323 27.368 36.2082 26.8135 36.2082 26.1611C36.2082 26.0306 36.2408 25.9001 36.2735 25.7696L35.2296 23.9429C35.4253 23.682 35.6863 23.4862 35.9473 23.2905Z" fill="#BABABA"/>
<path d="M37.8392 30.0754C39.144 30.0754 40.3509 29.423 41.0685 28.3465C41.1012 28.2813 41.1012 28.2161 41.0359 28.1508C40.9707 28.1182 40.9054 28.1182 40.8402 28.1834C40.1552 29.1947 39.0461 29.7818 37.8392 29.7818C37.513 29.7818 37.1868 29.7492 36.8606 29.6513C36.7954 29.6187 36.7301 29.6839 36.6975 29.7492C36.6649 29.8144 36.7301 29.8797 36.7954 29.9123C37.1216 30.0428 37.4804 30.0754 37.8392 30.0754Z" fill="white"/>
<path opacity="0.3" d="M38.296 24.6277V25.3446H37.7746L37.7095 24.5625C37.742 24.5625 37.7746 24.5625 37.8072 24.5625C38.0027 24.5625 38.1657 24.5951 38.296 24.6277Z" fill="black"/>
<path opacity="0.3" d="M38.0677 20.3223C38.1003 20.3223 38.1656 20.3223 38.1982 20.3223C38.2308 20.3223 38.2308 20.3223 38.2634 20.3223C38.3287 20.3223 38.3613 20.3223 38.4265 20.3223C38.4265 20.3223 38.4265 20.3223 38.4592 20.3223C38.5244 20.3223 38.5896 20.3223 38.6223 20.3549C38.6549 20.3549 38.6549 20.3549 38.6875 20.3549C38.7201 20.3549 38.7854 20.3549 38.818 20.3875C38.8506 20.3875 38.8506 20.3875 38.8832 20.3875C38.9158 20.3875 38.9811 20.3875 39.0137 20.4201H39.0463C39.1115 20.4201 39.1442 20.4527 39.2094 20.4527H39.242C39.2746 20.4527 39.3399 20.4854 39.3725 20.4854C39.4051 20.4854 39.4051 20.4854 39.4377 20.4854C39.4704 20.4854 39.5356 20.518 39.5682 20.518H39.6008C39.6661 20.5506 39.6987 20.5506 39.7639 20.5832H39.7966C39.8292 20.5832 39.8944 20.6158 39.927 20.6158C39.9597 20.6158 39.9597 20.6158 39.9923 20.6485C40.0249 20.6485 40.0575 20.6811 40.1228 20.6811C40.1228 20.6811 40.1554 20.6811 40.1554 20.7137C40.2206 20.7463 40.2532 20.7463 40.3185 20.7789C40.3185 20.7789 40.3185 20.7789 40.3511 20.7789C40.3837 20.8116 40.449 20.8116 40.4816 20.8442C40.4816 20.8442 40.5142 20.8442 40.5142 20.8768C40.5468 20.9094 40.5794 20.9094 40.6121 20.942C40.6121 20.942 40.6447 20.942 40.6447 20.9747C40.7099 21.0073 40.7425 21.0399 40.7752 21.0399C40.7752 21.1378 40.8404 21.1704 40.873 21.203L40.9056 21.2356C40.9383 21.2682 40.9709 21.2682 41.0035 21.3009L41.0361 21.3335C41.0687 21.3661 41.1014 21.3987 41.1666 21.4313C41.1666 21.4313 41.1666 21.4313 41.1992 21.4313C41.2318 21.464 41.2971 21.4966 41.3297 21.5292L41.3623 21.5618C41.3949 21.5944 41.4276 21.6271 41.4602 21.6271L41.4928 21.6597C41.5254 21.6923 41.558 21.7249 41.5906 21.7575C41.5906 21.7575 41.6233 21.7575 41.6233 21.7902C41.6559 21.8228 41.7211 21.8554 41.7537 21.888L41.7864 21.9206C41.819 21.9533 41.8516 21.9859 41.8842 22.0185L41.9168 22.0511C41.9495 22.0837 41.9821 22.1164 42.0147 22.149L42.0473 22.1816C42.0799 22.1816 42.1452 22.2142 42.1778 22.2468C42.1778 22.2468 42.1778 22.2795 42.2104 22.2795C42.243 22.3121 42.2757 22.3447 42.3083 22.3773L42.3409 22.4099C42.3735 22.4426 42.4061 22.4752 42.4061 22.5078L42.4388 22.5404C42.4714 22.573 42.504 22.6383 42.5366 22.6709C42.5366 22.6709 42.5366 22.6709 42.5366 22.7035C42.5692 22.7361 42.6019 22.7688 42.6345 22.834L42.6671 22.8666C42.6997 22.8992 42.6997 22.9319 42.7323 22.9645L42.765 22.9971C42.765 23.0623 42.7976 23.095 42.8302 23.1602C41.8516 23.1276 40.1554 23.0297 38.2961 22.6383V22.8014C38.133 22.7688 37.9699 22.7688 37.8068 22.7688C37.7415 22.7688 37.6763 22.7688 37.611 22.7688L37.5784 22.4752C36.5346 22.2142 35.4908 21.8554 34.4795 21.3987C34.61 21.3009 34.7079 21.2356 34.8384 21.1704C34.9688 21.1051 35.0993 21.0399 35.2298 20.9747C35.3603 20.9094 35.4908 20.8442 35.6212 20.8116C35.6865 20.7789 35.7517 20.7463 35.8496 20.7137C35.9148 20.6811 35.9801 20.6811 36.0453 20.6485C36.0453 20.6485 36.0453 20.6485 36.0779 20.6485C36.1431 20.6158 36.2084 20.6158 36.2736 20.5832C36.2736 20.5832 36.2736 20.5832 36.3062 20.5832C36.3715 20.5506 36.4367 20.5506 36.502 20.5506C36.502 20.5506 36.502 20.5506 36.5346 20.5506C36.5998 20.5506 36.6651 20.518 36.7303 20.518H36.7629C36.8282 20.518 36.8934 20.4854 36.9586 20.4854C36.9586 20.4854 36.9586 20.4854 36.9913 20.4854C37.0565 20.4854 37.1217 20.4527 37.187 20.4527H37.2196C37.2848 20.4527 37.3501 20.4527 37.4153 20.4201C37.5132 20.4201 37.5784 20.4201 37.6437 20.4201H37.6763C37.7415 20.4201 37.8068 20.4201 37.872 20.4201C37.9372 20.4201 38.0025 20.4201 38.0351 20.4201C38.0351 20.3223 38.0351 20.3223 38.0677 20.3223Z" fill="black"/>
<path opacity="0.3" d="M34.3815 26.1936C34.3815 26.4546 34.4141 26.7156 34.4793 26.9765H32.0328C32.0002 26.7156 31.9676 26.4546 31.9676 26.1936C31.9676 25.8348 32.0002 25.4434 32.0655 25.1172H34.5446C34.4467 25.4434 34.3815 25.8022 34.3815 26.1936Z" fill="black"/>
<path opacity="0.3" d="M38.2634 25.0845C38.4591 25.0845 38.6222 25.2476 38.6222 25.4433V26.585C38.6222 26.7807 38.4591 26.9438 38.2634 26.9438H36.4041C36.2736 26.7155 36.2083 26.4545 36.2083 26.1609C36.2083 26.0304 36.241 25.9 36.2736 25.7695L35.8821 25.0845H38.2634Z" fill="black"/>
<path d="M38.0023 21.5618C37.0563 21.1703 36.0451 20.6484 35.0013 20.0613C35.8494 19.6698 36.7628 19.4741 37.774 19.4741C40.4162 19.4741 42.6669 20.9746 43.776 23.1928C42.6017 23.0297 40.8402 22.6709 38.8504 21.9206L38.6221 26.3569C38.2306 26.52 37.9697 26.1938 38.0675 25.9328L38.0023 21.5618Z" fill="#383838"/>
<path d="M42.3734 21.8554C42.406 21.8554 42.4386 21.8554 42.4712 21.8228C42.5365 21.7576 42.5365 21.6923 42.4712 21.6271C41.8514 20.9747 41.1012 20.4854 40.2531 20.1266C40.1878 20.0939 40.09 20.1266 40.09 20.1918C40.0574 20.257 40.09 20.3549 40.1552 20.3549C40.9381 20.6811 41.6557 21.1704 42.2755 21.7902C42.3081 21.8228 42.3407 21.8554 42.3734 21.8554Z" fill="#474747"/>
<path d="M39.4703 20.1262C39.5356 20.1262 39.5682 20.0936 39.6008 20.0283C39.6334 19.9631 39.5682 19.8979 39.503 19.8652C39.3072 19.8 39.0789 19.7674 38.8506 19.7021C38.7853 19.7021 38.7201 19.7348 38.6875 19.8C38.6875 19.8652 38.7201 19.9305 38.7853 19.9631C38.981 19.9957 39.2094 20.061 39.4051 20.1262C39.4703 20.1262 39.4703 20.1262 39.4703 20.1262Z" fill="#474747"/>
<path d="M36.9587 22.3119L36.0454 22.214C35.9801 22.214 35.9149 22.1488 35.9149 22.0509C35.9149 21.9857 35.9801 21.9204 36.078 21.9204L36.9913 22.0183C37.0566 22.0183 37.1218 22.0835 37.1218 22.1814C37.0892 22.2792 37.024 22.3445 36.9587 22.3119Z" fill="#8C8C8C"/>
<path d="M37.3175 23.16L36.4041 23.0621C36.3389 23.0621 36.2737 22.9969 36.2737 22.899C36.2737 22.8338 36.3389 22.7686 36.4368 22.7686L37.3501 22.8664C37.4154 22.8664 37.4806 22.9317 37.4806 23.0295C37.448 23.1274 37.3827 23.16 37.3175 23.16Z" fill="#8C8C8C"/>
<path d="M36.2737 20.6483L35.3603 20.5504C35.2951 20.5504 35.2298 20.4852 35.2298 20.3873C35.2298 20.3221 35.2951 20.2568 35.3929 20.2568L36.3063 20.3547C36.3715 20.3547 36.4368 20.4199 36.4368 20.5178C36.4368 20.583 36.3715 20.6483 36.2737 20.6483Z" fill="#8C8C8C"/>
<path d="M36.6324 21.4637L35.7191 21.3658C35.6538 21.3658 35.5886 21.3006 35.5886 21.2027C35.5886 21.1375 35.6538 21.0723 35.7517 21.0723L36.6651 21.2027C36.7303 21.2027 36.7955 21.268 36.7955 21.3658C36.7629 21.4311 36.6977 21.4963 36.6324 21.4637Z" fill="#8C8C8C"/>
<path d="M35.9475 19.8001L35.0341 19.7023C34.9689 19.7023 34.9037 19.637 34.9037 19.5392C34.9037 19.4739 34.9689 19.4087 35.0668 19.4087L35.9801 19.5066C36.0454 19.5066 36.1106 19.5718 36.1106 19.6697C36.078 19.7675 36.0127 19.8001 35.9475 19.8001Z" fill="#8C8C8C"/>
<path d="M35.5886 18.952L34.6753 18.8541C34.61 18.8541 34.5448 18.7889 34.5448 18.691C34.5448 18.6258 34.61 18.5605 34.7079 18.5605L35.6212 18.691C35.6865 18.691 35.7517 18.7563 35.7517 18.8541C35.7517 18.9194 35.6865 18.952 35.5886 18.952Z" fill="#8C8C8C"/>
<path d="M35.2624 18.1043L34.3491 18.0065C34.2839 18.0065 34.2186 17.9412 34.2186 17.8434C34.2186 17.7781 34.2839 17.7129 34.3817 17.7129L35.2951 17.8434C35.3603 17.8434 35.4255 17.9086 35.4255 18.0065C35.3929 18.0717 35.3277 18.137 35.2624 18.1043Z" fill="#8C8C8C"/>
<path d="M37.6109 24.8888C37.6435 24.8888 37.6435 24.8888 37.6762 24.8888C37.774 24.8562 37.8066 24.7584 37.774 24.6605L34.1858 15.8205C34.1532 15.7227 34.0554 15.6901 33.9575 15.7227C33.8596 15.7553 33.827 15.8532 33.8596 15.951L37.4478 24.791C37.4804 24.8562 37.5457 24.8888 37.6109 24.8888Z" fill="#BFBFBF"/>
<path d="M36.763 21.4313L36.1758 22.1163C36.1432 22.1815 36.0454 22.1815 35.9801 22.1489C35.9149 22.1163 35.9149 22.0184 35.9475 21.9532L36.5347 21.2682C36.5999 21.2029 36.6978 21.2029 36.763 21.2682C36.7956 21.3008 36.8282 21.3986 36.763 21.4313Z" fill="#E0E0E0"/>
<path d="M37.1218 22.2792L36.5346 22.9642C36.502 23.0294 36.4041 23.0294 36.3389 22.9968C36.2736 22.9642 36.2736 22.8663 36.3063 22.8011L36.8934 22.1161C36.926 22.0508 37.0239 22.0508 37.0891 22.0834C37.1544 22.1487 37.1544 22.2139 37.1218 22.2792Z" fill="#E0E0E0"/>
<path d="M36.0779 19.7673L35.4908 20.4524C35.4582 20.5176 35.3603 20.5176 35.2951 20.485C35.2298 20.4524 35.2298 20.3545 35.2624 20.2893L35.8822 19.5716C35.9148 19.5064 36.0127 19.5064 36.0779 19.539C36.1106 19.6042 36.1432 19.7021 36.0779 19.7673Z" fill="#E0E0E0"/>
<path d="M36.4367 20.6156L35.8495 21.3006C35.8169 21.3658 35.7191 21.3658 35.6538 21.3332C35.5886 21.3006 35.5886 21.2027 35.6212 21.1375L36.2084 20.4525C36.241 20.3872 36.3388 20.3872 36.4041 20.4199C36.4693 20.4525 36.4693 20.5503 36.4367 20.6156Z" fill="#E0E0E0"/>
<path d="M35.7518 18.9193L35.1646 19.6043C35.132 19.6695 35.0341 19.6695 34.9689 19.6369C34.9037 19.6043 34.9037 19.5064 34.9363 19.4412L35.5234 18.7562C35.556 18.691 35.6539 18.691 35.7191 18.7236C35.7844 18.7888 35.7844 18.8541 35.7518 18.9193Z" fill="#E0E0E0"/>
<path d="M35.3929 18.0711L34.8057 18.7562C34.7731 18.8214 34.6753 18.8214 34.61 18.7888C34.5448 18.7562 34.5448 18.6583 34.5774 18.5931L35.1645 17.9081C35.1972 17.8428 35.295 17.8428 35.3603 17.8754C35.4581 17.9407 35.4581 18.0059 35.3929 18.0711Z" fill="#E0E0E0"/>
<path d="M35.0667 17.223L34.4795 17.908C34.4469 17.9733 34.3491 17.9733 34.2838 17.9406C34.2186 17.908 34.2186 17.8102 34.2512 17.7449L34.8384 17.0599C34.871 16.9947 34.9688 16.9947 35.0341 17.0273C35.0993 17.0925 35.0993 17.1904 35.0667 17.223Z" fill="#E0E0E0"/>
<path d="M8.08979 14.4829C8.08979 14.4829 7.47002 14.7112 7.47002 16.2444C7.47002 17.7775 8.08979 18.0058 8.08979 18.0058L9.03577 16.3422L8.08979 14.4829Z" fill="#E8E8E8"/>
<path d="M8.67688 18.0713L8.08972 17.9734V14.4831L8.67688 14.3853V18.0713Z" fill="#BFBFBF"/>
<path d="M8.67712 14.3853C9.32951 14.4831 9.91667 14.8419 10.3407 15.3312V15.3638C10.5038 15.5596 10.6017 15.8858 10.6017 16.212C10.6017 16.5708 10.5038 16.8644 10.3407 17.0601V17.0927C9.91667 17.6146 9.32951 17.9408 8.67712 18.0387V14.3853Z" fill="#999999"/>
<path d="M24.9217 15.2989L25.8677 17.8433C26.1612 18.6588 26.096 19.5395 25.7046 20.2898L23.4538 24.4325H27.4008L31.1847 15.1685L24.9217 15.2989Z" fill="#878787"/>
<path d="M24.2693 24.1715L23.6169 24.0737L25.6719 20.2898C26.096 19.5395 26.1612 18.6588 25.835 17.8433L24.8891 15.2989L31.1847 15.1685L30.8911 15.8535L30.7606 16.0492H26.3243L26.6832 17.093C27.2377 18.6262 26.9767 20.3224 26.0308 21.6598L24.2693 24.1715Z" fill="#878787"/>
<path d="M25.7049 12.3955H35.4256C36.4694 12.3955 37.3175 13.2436 37.3175 14.2875V15.5596H23.8129V14.2875C23.8129 13.2436 24.661 12.3955 25.7049 12.3955Z" fill="#515151"/>
<path d="M35.4908 13.5042H25.6722C24.9872 13.5042 24.9546 12.4604 25.6396 12.4277C25.6722 12.4277 25.7048 12.4277 25.7374 12.4277H35.4255C35.4581 12.4277 35.4908 12.4277 35.5234 12.4277C36.2084 12.4604 36.1758 13.5042 35.4908 13.5042Z" fill="#616161"/>
<path d="M38.2634 26.5849H26.5529C26.3572 26.5849 26.1941 26.4218 26.1941 26.2261V25.0844C26.1941 24.8887 26.3572 24.7256 26.5529 24.7256H38.2634C38.4591 24.7256 38.6222 24.8887 38.6222 25.0844V26.2261C38.6222 26.4218 38.4591 26.5849 38.2634 26.5849Z" fill="#383838"/>
<path d="M38.5895 26.3569C38.5242 26.4874 38.3938 26.5853 38.2633 26.5853H26.5528C26.3897 26.5853 26.2918 26.4874 26.2266 26.3569H38.5895Z" fill="#0C0C0C"/>
<path d="M26.5529 24.6934H38.2634C38.4591 24.6934 38.6222 24.8565 38.6222 25.0522V25.2479H26.1941V25.0522C26.1941 24.8565 26.3572 24.6934 26.5529 24.6934Z" fill="#2B2B2B"/>
<path d="M26.6178 24.6934H29.6188L29.5862 24.7912C29.26 25.5089 28.738 26.096 28.1509 26.5527H26.6504C26.4547 26.5527 26.2916 26.3896 26.2916 26.1939V25.0522C26.2263 24.8565 26.3894 24.6934 26.6178 24.6934Z" fill="#0C0C0C"/>
<path d="M10.3086 16.2427L11.0402 16.603L6.22566 26.3769L5.49408 26.0166L10.3086 16.2427Z" fill="#BFBFBF"/>
<path d="M10.2773 16.2378L11.0089 16.5981L10.3026 18.032L9.57101 17.6717L10.2773 16.2378Z" fill="#9B9B9B"/>
<path d="M10.2846 16.225L10.5187 16.3403L5.70417 26.1142L5.47007 25.9989L10.2846 16.225Z" fill="#9B9B9B"/>
<path d="M10.5397 16.4288L12.2662 17.2793L11.877 18.0694L10.1505 17.2189L10.5397 16.4288Z" fill="#212121"/>
<path d="M6.06724 21.5618C5.12127 21.1703 4.11005 20.6484 3.06622 20.0613C3.91433 19.6698 4.82769 19.4741 5.8389 19.4741C8.4811 19.4741 10.7319 20.9746 11.8409 23.1928C10.6666 23.0297 8.90516 22.6709 6.91535 21.9206L5.05603 25.7371C4.95817 25.9002 4.76245 25.9655 4.59935 25.9002C4.43625 25.835 4.37101 25.6393 4.43625 25.4762L6.06724 21.5618Z" fill="#383838"/>
<path d="M7.17629 20.0288C7.24153 20.0288 7.30676 19.9962 7.30676 19.931C7.30676 19.8657 7.27414 19.8005 7.2089 19.7679C6.39341 19.6048 5.51267 19.6048 4.66456 19.7352C4.59932 19.7352 4.53408 19.8331 4.5667 19.8983C4.5667 19.9636 4.66456 20.0288 4.7298 19.9962C5.51267 19.8657 6.36079 19.8657 7.17629 20.0288Z" fill="#474747"/>
<path d="M34.3819 17.1254C34.4145 17.1254 34.4797 17.1254 34.5124 17.0928C34.7081 17.0275 34.7733 16.7992 34.7081 16.6361L34.3493 15.7553C34.284 15.5596 34.0557 15.4944 33.8926 15.5596C33.6969 15.6249 33.6316 15.8532 33.6969 16.0163L34.0557 16.897C34.1209 17.0275 34.2514 17.1254 34.3819 17.1254Z" fill="#E0E0E0"/>
<path d="M33.8924 15.5596C34.0882 15.4944 34.2839 15.5596 34.3491 15.7553L34.6427 16.5056H33.8598L33.6641 16.0489C33.6315 15.8206 33.7293 15.6249 33.8924 15.5596Z" fill="#8C8C8C"/>
<path d="M37.5786 15.7232H38.1005C38.231 15.7232 38.3615 15.5927 38.3615 15.4622V14.1574C38.3615 14.027 38.231 13.8965 38.1005 13.8965H37.5786V15.7232Z" fill="#8C8C8C"/>
<path d="M14.9725 11.1886C15.1356 11.1886 15.2661 11.0908 15.3639 10.9277L17.3211 6.42616L19.2783 7.01331C19.5066 7.07855 19.735 6.94807 19.8002 6.71974C19.8655 6.4914 19.735 6.26306 19.5066 6.19782L17.1906 5.5128C16.9949 5.44756 16.7666 5.54542 16.7013 5.74114L14.6137 10.5689C14.5158 10.7646 14.6137 11.0255 14.842 11.0908C14.8746 11.1886 14.9073 11.1886 14.9725 11.1886Z" fill="#212121"/>
<path d="M16.571 7.27407C16.6689 7.27407 16.7667 7.20883 16.7667 7.07835V3.81637C16.7667 3.78375 16.7667 3.75113 16.7341 3.71851L15.4619 2.02228C15.3967 1.95704 15.2988 1.92442 15.201 1.98966C15.1357 2.0549 15.1031 2.15276 15.1684 2.25062L16.4079 3.88161V7.11097C16.3753 7.20883 16.4731 7.27407 16.571 7.27407Z" fill="#383838"/>
<path d="M15.1359 2.87062L14.8423 2.38133C14.6792 2.12037 14.6139 1.82679 14.6139 1.53321C14.6139 1.23963 14.6792 0.946055 14.8423 0.685097L15.1359 0.195801V2.87062Z" fill="#212121"/>
<path d="M15.2659 3.06626H15.4943C15.5921 3.06626 15.6573 3.00102 15.6573 2.90316V0.163099C15.6573 0.0652395 15.5921 0 15.4943 0H15.2659C15.1681 0 15.1028 0.0652395 15.1028 0.163099V2.93578C15.1028 3.00102 15.1681 3.06626 15.2659 3.06626Z" fill="#4F4F4F"/>
<path d="M25.281 26.4219C27.0424 26.4219 28.6734 25.3781 29.4237 23.7797L32.7509 16.8317C32.9792 16.3424 33.5012 16.0162 34.0557 16.0162H37.3503C37.546 16.0162 37.7091 15.8531 37.7091 15.6574V13.9938C37.7091 13.798 37.546 13.6349 37.3503 13.6349H34.0557C32.5878 13.6349 31.2504 14.4831 30.6306 15.8205L27.336 22.8011C26.9772 23.584 26.1617 24.0733 25.3136 24.0733H17.6153C17.3544 24.0733 17.0934 23.9102 16.9956 23.6818L14.3207 17.6798C13.9945 16.9295 13.9945 16.114 14.3207 15.3638L17.126 8.80722C17.1913 8.64412 17.126 8.41578 16.9303 8.35054L15.3972 7.69815C15.3646 7.66553 15.2993 7.66553 15.2667 7.66553C15.1362 7.66553 15.0058 7.76339 14.9405 7.86125L12.1352 14.4178C11.5481 15.7552 11.5481 17.2884 12.1678 18.6258L14.8427 24.6278C15.2993 25.7369 16.3758 26.4219 17.5827 26.4219H25.281Z" fill="#969696"/>
<path d="M12.0046 14.3526L14.8425 7.79602C14.9078 7.63292 15.0709 7.50244 15.2666 7.50244C15.3318 7.50244 15.3971 7.50244 15.4623 7.53506L16.9954 8.18746C17.2238 8.28532 17.3543 8.57889 17.2564 8.80723L14.4185 15.3964C14.1249 16.1141 14.1249 16.8969 14.4185 17.6146L17.0933 23.6166C17.1912 23.8123 17.3869 23.9428 17.5826 23.9428H25.2809C26.0964 23.9428 26.8466 23.4861 27.1728 22.7359L30.4674 15.7552C31.1198 14.3852 32.5225 13.5045 34.023 13.5045H37.3502C37.6111 13.5045 37.8395 13.7328 37.8395 13.9938V15.6574C37.8395 15.9183 37.6111 16.1467 37.3502 16.1467H34.0556C33.5663 16.1467 33.1096 16.4403 32.8813 16.8969L29.5867 23.8776C28.8038 25.5086 27.1402 26.585 25.3135 26.585H17.6152C16.3757 26.585 15.234 25.8348 14.7121 24.6931L12.0372 18.691C11.4175 17.2884 11.4175 15.7226 12.0046 14.3526ZM12.2656 18.5605L14.9404 24.5626C15.3971 25.6064 16.4409 26.2914 17.5826 26.2914H25.2809C27.0097 26.2914 28.5755 25.2802 29.3257 23.7471L32.6203 16.7665C32.8813 16.2119 33.4358 15.8531 34.0556 15.8531H37.3502C37.4807 15.8531 37.5459 15.7552 37.5459 15.6574V13.9938C37.5459 13.8633 37.448 13.7981 37.3502 13.7981H34.0556C32.6529 13.7981 31.3481 14.6136 30.7284 15.8857L27.4338 22.8664C27.0423 23.6818 26.1942 24.2364 25.2809 24.2364H17.5826C17.2564 24.2364 16.9628 24.0407 16.8323 23.7471L14.1575 17.745C13.8313 16.9622 13.7987 16.0814 14.1575 15.3312L16.9954 8.77461C17.0281 8.67675 16.9954 8.54627 16.8976 8.48103L15.3645 7.82864C15.3318 7.82864 15.2992 7.79602 15.2666 7.79602C15.1687 7.79602 15.1035 7.86126 15.0709 7.9265L12.233 14.4831C11.6784 15.7552 11.6784 17.2558 12.2656 18.5605Z" fill="#878787"/>
<path d="M10.7318 17.4847L11.058 16.7997C11.1233 16.6692 11.058 16.5061 10.9275 16.4408L10.4056 16.1799C10.2752 16.1147 10.1121 16.1799 10.0468 16.3104L9.72062 16.9954C9.65538 17.1259 9.72062 17.289 9.8511 17.3542L10.373 17.6152C10.5035 17.6804 10.6666 17.6152 10.7318 17.4847Z" fill="#878787"/>
<path d="M6.45866 26.1938L9.55754 19.8656C9.62278 19.7351 9.55754 19.572 9.42706 19.5068L8.90514 19.2458C8.77466 19.1806 8.61156 19.2458 8.54633 19.3763L5.44745 25.7045C5.38221 25.835 5.44745 25.9981 5.57793 26.0634L6.09985 26.3243C6.23033 26.3569 6.39342 26.3243 6.45866 26.1938Z" fill="#878787"/>
<path d="M38.1003 15.0705C38.1982 15.0705 38.296 14.9726 38.296 14.8748V14.1571C38.296 14.0593 38.1982 13.9614 38.1003 13.9614C38.0024 13.9614 37.9046 14.0593 37.9046 14.1571V14.8748C37.9046 14.9726 37.9698 15.0705 38.1003 15.0705Z" fill="#A0A0A0"/>
<path d="M5.83942 26.5519C6.03494 26.5519 6.19788 26.3889 6.19788 26.1934C6.19788 25.9979 6.03494 25.835 5.83942 25.835C5.6439 25.835 5.48097 25.9979 5.48097 26.1934C5.48097 26.3889 5.6439 26.5519 5.83942 26.5519Z" fill="#212121"/>
<path d="M17.158 6.23014C17.158 6.6542 17.5168 7.01301 17.9409 7.01301C18.3649 7.01301 18.7238 6.6542 18.7238 6.23014C18.7238 5.80608 18.3649 5.44727 17.9409 5.44727C17.5168 5.44727 17.1906 5.77346 17.158 6.23014Z" fill="#111111"/>
<path d="M20.5509 8.15446C20.6813 8.15446 20.7466 8.0566 20.7466 7.95874V7.82826C20.7466 7.73041 20.6813 7.66517 20.6161 7.66517L18.3327 6.94753L18.4632 6.42562C18.4958 6.32776 18.4306 6.2299 18.3001 6.19728C18.2022 6.16466 18.1044 6.2299 18.0718 6.36038L17.9087 7.04539C17.876 7.14325 17.9413 7.24111 18.0391 7.27373L20.3551 7.99136C20.3551 8.0566 20.453 8.15446 20.5509 8.15446Z" fill="#8E8E8E"/>
<path d="M20.7136 7.50248C20.9093 7.50248 21.0724 7.372 21.1376 7.17628C21.2029 6.94794 21.0724 6.68698 20.844 6.62174L18.104 5.77363C17.8757 5.70839 17.6147 5.83887 17.5495 6.06721C17.4842 6.29555 17.6147 6.5565 17.843 6.62174L20.5831 7.46986C20.6157 7.50248 20.6483 7.50248 20.7136 7.50248Z" fill="#222222"/>
<path d="M8.44875 16.8319C8.51398 16.8319 8.57922 16.7667 8.57922 16.7014V14.7442C8.57922 14.679 8.51398 14.6138 8.44875 14.6138C8.38351 14.6138 8.31827 14.679 8.31827 14.7442V16.7014C8.28565 16.7667 8.35089 16.8319 8.44875 16.8319Z" fill="white"/>
<path d="M7.99173 22.3773C8.05697 22.3773 8.08958 22.3447 8.1222 22.3121L9.16604 20.1592C9.19866 20.094 9.16603 19.9961 9.1008 19.9635C9.03556 19.9309 8.9377 19.9635 8.90508 20.0287L7.86125 22.1816C7.82863 22.2469 7.86125 22.3447 7.92649 22.3773C7.95911 22.3773 7.99173 22.3773 7.99173 22.3773Z" fill="white"/>
</svg>
