<svg viewBox="0 0 16 18" fill="none" xmlns="http://www.w3.org/2000/svg">
<path fill-rule="evenodd" clip-rule="evenodd" d="M6.38182 2.14913C3.84103 2.80278 1.96364 5.10831 1.96364 7.8543V11.7812C1.96364 12.1431 1.66966 12.4364 1.30977 12.4364C0.586406 12.4364 0 13.0239 0 13.7455C0 14.4684 0.587144 15.0545 1.31233 15.0545H14.3968C15.1215 15.0545 15.7091 14.467 15.7091 13.7455C15.7091 13.0225 15.1199 12.4364 14.3993 12.4364C14.0382 12.4364 13.7455 12.1453 13.7455 11.7812V7.8543C13.7455 5.1094 11.8685 2.803 9.32727 2.14916V1.47301C9.32727 0.657572 8.66791 0 7.85455 0C7.04284 0 6.38182 0.659488 6.38182 1.47301V2.14913ZM5.56364 15.7091H10.1455C10.1455 16.9743 9.11978 18 7.85455 18C6.58931 18 5.56364 16.9743 5.56364 15.7091Z" fill="white"/>
</svg>
