<svg viewBox="0 0 18 18" fill="none" xmlns="http://www.w3.org/2000/svg">
<path d="M10.6001 5.48039C10.6001 7.01639 11.8801 7.40039 12.5201 7.40039H15.0801C16.6161 7.40039 17.0001 6.12039 17.0001 5.48039V2.92039C17.0001 1.38439 15.7201 1.00039 15.0801 1.00039H12.5201C10.9841 1.00039 10.6001 2.28039 10.6001 2.92039V5.48039Z" fill="#00BBB2" fill-opacity="0.8" stroke="#239FA4" stroke-width="1.3"/>
<path d="M10.6001 15.08C10.6001 16.616 11.8801 17 12.5201 17H15.0801C16.6161 17 17.0001 15.72 17.0001 15.08V12.52C17.0001 10.984 15.7201 10.6 15.0801 10.6H12.5201C10.9841 10.6 10.6001 11.88 10.6001 12.52V15.08Z" fill="#00BBB2" fill-opacity="0.8" stroke="#239FA4" stroke-width="1.3"/>
<path d="M1 5.48039C1 7.01639 2.28 7.40039 2.92 7.40039H5.48C7.016 7.40039 7.4 6.12039 7.4 5.48039V2.92039C7.4 1.38439 6.12 1.00039 5.48 1.00039H2.92C1.384 1.00039 1 2.28039 1 2.92039V5.48039Z" fill="#00BBB2" fill-opacity="0.8" stroke="#239FA4" stroke-width="1.3"/>
<path d="M1 15.08C1 16.616 2.28 17 2.92 17H5.48C7.016 17 7.4 15.72 7.4 15.08V12.52C7.4 10.984 6.12 10.6 5.48 10.6H2.92C1.384 10.6 1 11.88 1 12.52V15.08Z" fill="#00BBB2" fill-opacity="0.8" stroke="#239FA4" stroke-width="1.3"/>
</svg>
