<svg viewBox="0 0 19 18" fill="none" xmlns="http://www.w3.org/2000/svg">
                            <path d="M18.2549 9C18.2549 4.02944 14.2254 0 9.25488 0C4.28432 0 0.254883 4.02944 0.254883 9C0.254883 13.9706 4.28432 18 9.25488 18C14.2254 18 18.2549 13.9706 18.2549 9Z" fill="url(#paint0_linear)"/>
                            <path fill-rule="evenodd" clip-rule="evenodd" d="M14.4272 4.79717C14.4622 4.83267 14.4971 4.86816 14.4971 4.93914V13.7625C14.4971 14.4368 13.938 15.0047 13.274 15.0047H5.23631C4.57233 15.0047 4.01318 14.4368 4.01318 13.7625V4.93914C4.01318 4.86816 4.04813 4.83267 4.08308 4.79717L4.36265 4.61971V3.16452C4.36265 3.05805 4.43254 2.98706 4.53738 2.98706H13.9729C14.0777 2.98706 14.1476 3.05805 14.1476 3.16452V4.61971L14.4272 4.79717ZM9.25514 9.24237C10.7578 9.24237 11.981 8.03563 12.0509 6.54495C12.2605 6.47396 12.4003 6.2965 12.4003 6.04806C12.4003 5.76412 12.1557 5.51567 11.8761 5.51567C11.5965 5.51567 11.3519 5.76412 11.3519 6.04806C11.3519 6.26101 11.4917 6.47396 11.7014 6.54495C11.6315 7.85817 10.5482 8.88745 9.25514 8.88745C7.96213 8.88745 6.87879 7.85817 6.80889 6.54495C7.01857 6.47396 7.15836 6.26101 7.15836 6.04806C7.15836 5.76412 6.91373 5.51567 6.63416 5.51567C6.35459 5.51567 6.10997 5.76412 6.10997 6.04806C6.10997 6.26101 6.24975 6.47396 6.45943 6.54495C6.52932 8.03563 7.75245 9.24237 9.25514 9.24237ZM6.04007 4.01634L4.81695 4.76168H13.6933L12.4702 4.01634C12.4353 4.01634 12.4003 3.94536 12.4003 3.87437C12.4003 3.80339 12.4353 3.7324 12.5052 3.7324L13.239 3.34198H5.27125L6.00513 3.7324C6.07502 3.76789 6.10997 3.80339 6.10997 3.87437C6.10997 3.94536 6.07502 3.98085 6.04007 4.01634ZM6.63372 6.22577C6.73022 6.22577 6.80845 6.14632 6.80845 6.04831C6.80845 5.9503 6.73022 5.87085 6.63372 5.87085C6.53721 5.87085 6.45898 5.9503 6.45898 6.04831C6.45898 6.14632 6.53721 6.22577 6.63372 6.22577ZM11.8759 6.22577C11.9724 6.22577 12.0506 6.14632 12.0506 6.04831C12.0506 5.9503 11.9724 5.87085 11.8759 5.87085C11.7794 5.87085 11.7012 5.9503 11.7012 6.04831C11.7012 6.14632 11.7794 6.22577 11.8759 6.22577Z" fill="white"/>
                            <path d="M8.86165 10.0758H7.9846L6.9572 12.631H6.93716L5.90976 10.0758H5.03271V13.6801H5.70679V11.2472H5.72683L6.70913 13.6451H7.18524L8.16753 11.2472H8.18757V13.6801H8.86165V10.0758Z" fill="url(#paint1_linear)"/>
                            <path d="M10.949 10.5254L11.6081 9.75104H10.924L10.3702 10.5254H10.949ZM10.6684 13.1656C10.28 13.1656 10.0494 12.8483 10.0494 12.3038C10.0494 11.7668 10.2825 11.4421 10.6684 11.4421C11.0543 11.4421 11.2848 11.7643 11.2848 12.3038C11.2848 12.8458 11.0568 13.1656 10.6684 13.1656ZM12.0265 12.3488C12.0265 11.9441 11.9037 11.6119 11.6907 11.4346V11.4196H11.806C12.0942 11.4196 12.2571 11.2472 12.2571 10.9475V10.398H11.6782V10.7602C11.6782 10.915 11.6055 10.9725 11.4026 10.9725C11.142 10.9725 11.0242 10.8826 10.6684 10.8826C9.83141 10.8826 9.30769 11.4296 9.30769 12.3038C9.30769 13.188 9.82389 13.7276 10.6809 13.7276C11.4928 13.7276 12.0265 13.1781 12.0265 12.3488Z" fill="url(#paint2_linear)"/>
                            <path d="M12.7156 13.6801H13.4473V10.93H12.7156V13.6801ZM13.0815 10.6303C13.2995 10.6303 13.4774 10.4654 13.4774 10.2481C13.4774 10.0308 13.2995 9.86844 13.0815 9.86844C12.866 9.86844 12.6881 10.0308 12.6881 10.2481C12.6881 10.4654 12.866 10.6303 13.0815 10.6303Z" fill="url(#paint3_linear)"/>
                            <defs>
                            <linearGradient id="paint0_linear" x1="9.25488" y1="18" x2="9.25488" y2="0" gradientUnits="userSpaceOnUse">
                            <stop stop-color="#FF8A00"/>
                            <stop offset="1" stop-color="#FFA800"/>
                            </linearGradient>
                            <linearGradient id="paint1_linear" x1="9.25506" y1="9.75104" x2="9.25506" y2="13.7276" gradientUnits="userSpaceOnUse">
                            <stop stop-color="#FF8A00"/>
                            <stop offset="1" stop-color="#FFA800"/>
                            </linearGradient>
                            <linearGradient id="paint2_linear" x1="9.25506" y1="9.75104" x2="9.25506" y2="13.7276" gradientUnits="userSpaceOnUse">
                            <stop stop-color="#FF8A00"/>
                            <stop offset="1" stop-color="#FFA800"/>
                            </linearGradient>
                            <linearGradient id="paint3_linear" x1="9.25506" y1="9.75104" x2="9.25506" y2="13.7276" gradientUnits="userSpaceOnUse">
                            <stop stop-color="#FF8A00"/>
                            <stop offset="1" stop-color="#FFA800"/>
                            </linearGradient>
                            </defs>
                        </svg>