<svg xmlns="http://www.w3.org/2000/svg" width="22" height="24" viewBox="0 0 22 24">
    <defs>
        <style>
            .cls-1,.cls-3{fill:none}.cls-2{clip-path:url(#clip-path)}.cls-3{stroke:#fff;stroke-linecap:round;stroke-linejoin:round;stroke-width:1.5px}
        </style>
        <clipPath id="clip-path">
            <path d="M0 0h22v24H0z" class="cls-1"/>
        </clipPath>
    </defs>
    <g id="헤더_설정버튼" class="cls-2">
        <path id="사각형_824" d="M0 0h22v24H0z" class="cls-1" data-name="사각형 824"/>
        <g id="그룹_1340" data-name="그룹 1340" transform="translate(-2252.142 -589.5)">
            <circle id="타원_230" cx="4.068" cy="4.068" r="4.068" class="cls-3" data-name="타원 230" transform="translate(2258.69 597.602)"/>
            <path id="패스_629" d="M2270.7 608.047l1.955-3.388a.471.471 0 0 0-.124-.613l-1.706-1.292a8.271 8.271 0 0 0 .074-1.085 8.131 8.131 0 0 0-.193-1.756l1.656-1.253a.472.472 0 0 0 .124-.613l-1.956-3.388a.473.473 0 0 0-.593-.2l-2.072.875a8.118 8.118 0 0 0-2.418-1.346l-.259-2.075a.473.473 0 0 0-.469-.414h-3.919a.473.473 0 0 0-.469.414l-.259 2.075a8.139 8.139 0 0 0-2.595 1.493l-1.726-.728a.473.473 0 0 0-.593.2l-1.955 3.388a.472.472 0 0 0 .124.613l1.454 1.1a8.151 8.151 0 0 0 .016 3.3l-1.3.984a.473.473 0 0 0-.124.613l1.956 3.388a.473.473 0 0 0 .593.2l1.576-.665a8.137 8.137 0 0 0 2.972 1.6l.2 1.609a.473.473 0 0 0 .469.414h3.912a.473.473 0 0 0 .469-.414l.231-1.853a8.116 8.116 0 0 0 2.647-1.7l1.7.718a.473.473 0 0 0 .602-.201z" class="cls-3" data-name="패스 629"/>
        </g>
    </g>
</svg>
