<svg width="17" height="17" viewBox="0 0 17 17" fill="none" xmlns="http://www.w3.org/2000/svg">
<path d="M14.5324 0H2.46713C1.25731 0 0.273438 0.98387 0.273438 2.19369V12.0653C0.273438 13.2751 1.25731 14.259 2.46713 14.259V16.4516C2.46713 16.6644 2.58997 16.8574 2.78302 16.9484C2.85651 16.9825 2.93658 17 3.01555 17C3.14169 17 3.26673 16.9572 3.36654 16.8728L6.50461 14.259H14.5324C15.7422 14.259 16.7261 13.2751 16.7261 12.0653V2.19369C16.7261 0.98387 15.7422 0 14.5324 0Z" fill="#00BCC3"/>
<path d="M4.11255 9.87168H3.01571C2.71298 9.87168 2.46729 9.62598 2.46729 9.32325C2.46729 9.02052 2.71298 8.77483 3.01571 8.77483H4.11255C4.41528 8.77483 4.66097 8.52914 4.66097 8.22641C4.66097 7.92368 4.41528 7.67799 4.11255 7.67799C3.20546 7.67799 2.46729 6.93981 2.46729 6.03272C2.46729 5.12563 3.20546 4.38745 4.11255 4.38745H5.20939C5.51212 4.38745 5.75781 4.63314 5.75781 4.93587C5.75781 5.2386 5.51212 5.4843 5.20939 5.4843H4.11255C3.80982 5.4843 3.56413 5.72999 3.56413 6.03272C3.56413 6.33545 3.80982 6.58114 4.11255 6.58114C5.01964 6.58114 5.75781 7.31932 5.75781 8.22641C5.75781 9.1335 5.01964 9.87168 4.11255 9.87168Z" fill="white"/>
<path d="M12.8875 9.87143H11.7906C11.4879 9.87143 11.2422 9.62574 11.2422 9.32301C11.2422 9.02028 11.4879 8.77459 11.7906 8.77459H12.8875C13.1891 8.77459 13.4359 8.52889 13.4359 8.22616C13.4359 7.92344 13.1891 7.67774 12.8875 7.67774C11.9804 7.67774 11.2422 6.93957 11.2422 6.03247C11.2422 5.12538 11.9804 4.38721 12.8875 4.38721H13.9843C14.287 4.38721 14.5327 4.6329 14.5327 4.93563C14.5327 5.23836 14.287 5.48405 13.9843 5.48405H12.8875C12.5858 5.48405 12.339 5.72975 12.339 6.03247C12.339 6.3352 12.5858 6.5809 12.8875 6.5809C13.7945 6.5809 14.5327 7.31907 14.5327 8.22616C14.5327 9.13326 13.7945 9.87143 12.8875 9.87143Z" fill="white"/>
<path d="M9.59662 9.87141C9.29389 9.87141 9.04819 9.62572 9.04819 9.32299V7.25873L8.99006 7.37499C8.80359 7.74682 8.19484 7.74682 8.00838 7.37499L7.95134 7.25873V9.32299C7.95134 9.62572 7.70565 9.87141 7.40292 9.87141C7.10019 9.87141 6.85449 9.62572 6.85449 9.32299V4.93561C6.85449 4.68114 7.02999 4.45958 7.27678 4.40145C7.52138 4.34222 7.77914 4.46287 7.89321 4.68992L8.49977 5.90303L9.10632 4.69101C9.2193 4.46177 9.47048 4.34331 9.72275 4.40145C9.97064 4.45958 10.145 4.68114 10.145 4.93561V9.32299C10.145 9.62572 9.89935 9.87141 9.59662 9.87141Z" fill="white"/>
</svg>
