<svg width="17" height="17" viewBox="0 0 17 17" fill="none" xmlns="http://www.w3.org/2000/svg">
<path fill-rule="evenodd" clip-rule="evenodd" d="M4.39863 7.86157C5.44807 9.84674 7.15324 11.5519 9.1384 12.6013C9.38964 12.4085 9.62874 12.2036 9.87862 12.0076C10.0701 11.8571 10.2804 11.7047 10.5272 11.6652C10.6144 11.6508 10.7029 11.6508 10.7901 11.6638C11.5577 11.7784 12.3501 11.9555 13.0741 12.2373C13.7532 12.4998 14.5905 12.9425 14.8606 13.6679C14.9388 13.8786 14.9636 14.102 14.9375 14.324C14.8269 15.2526 14.4948 16.2252 13.6314 16.7056C13.0521 17.0274 12.3717 17.0494 11.733 16.942C10.9478 16.8112 10.1613 16.4818 9.4593 16.1133C8.59863 15.6634 7.7784 15.1092 7.00942 14.5155C6.16357 13.8638 5.36088 13.1501 4.60492 12.3955C3.85032 11.6404 3.13616 10.8369 2.48448 9.99056C1.89122 9.22157 1.33661 8.40135 0.886726 7.54112C0.518187 6.83865 0.188749 6.05214 0.0579627 5.26697C-0.0494529 4.62832 -0.0274305 3.94787 0.294816 3.36854C0.774816 2.50517 1.7474 2.17304 2.67594 2.06427C2.89796 2.03641 3.12178 2.06113 3.33212 2.13933C4.63234 2.62293 5.15459 4.99101 5.33616 6.21034C5.34919 6.29888 5.34919 6.38562 5.33481 6.47281C5.29571 6.71955 5.14335 6.92989 4.99234 7.12135C4.79638 7.37124 4.59324 7.61079 4.39863 7.86157Z" fill="#00BCC3"/>
<path d="M9.06874 1.18247C8.7429 1.18202 8.47863 0.915056 8.47953 0.589214C8.47998 0.263821 8.74694 -0.000448866 9.07279 5.72414e-07C11.2615 0.00045001 13.2458 0.88809 14.6795 2.3218C16.1128 3.75505 17 5.73887 17.0009 7.92809C17.0013 8.25393 16.737 8.52044 16.4112 8.52134C16.0858 8.52179 15.8188 8.25752 15.8179 7.93213C15.8175 6.07056 15.0615 4.38202 13.8404 3.1609C12.6188 1.93933 10.9299 1.18337 9.06874 1.18247Z" fill="#00BCC3"/>
<path d="M9.07278 3.54922C8.74424 3.55011 8.47728 3.28315 8.47728 2.95686C8.47728 2.63011 8.74424 2.3636 9.07053 2.3636C10.6117 2.36585 12.0022 2.98922 13.0067 3.99326C14.0108 4.99775 14.6346 6.38921 14.6355 7.9227C14.6373 8.25618 14.3703 8.52315 14.044 8.52315C13.7177 8.52315 13.4508 8.25618 13.4508 7.92989C13.4512 6.72 12.96 5.62472 12.1676 4.83236C11.3761 4.0409 10.2804 3.54922 9.07278 3.54922Z" fill="#00BCC3"/>
<path d="M9.07279 5.91101C8.74694 5.91146 8.47998 5.64719 8.47953 5.32134C8.47863 4.9955 8.7429 4.72898 9.06874 4.72809C9.95458 4.72764 10.7577 5.08629 11.3362 5.66516C11.9146 6.24314 12.2732 7.04584 12.2728 7.93213C12.2719 8.25752 12.0049 8.52179 11.6791 8.52134C11.3537 8.52044 11.0894 8.25393 11.0899 7.92808C11.0908 7.37483 10.8633 6.87011 10.4971 6.50426C10.1308 6.13752 9.6256 5.91011 9.07279 5.91101Z" fill="#00BCC3"/>
</svg>
