<svg v-if="styleStore === 'alliance'" viewBox="0 0 18 18" fill="none" xmlns="http://www.w3.org/2000/svg">
                            <circle cx="9" cy="9" r="8.5" fill="#00BCC3" stroke="#009BA1"/>
                            <path d="M6.56083 5.72732C5.91163 5.72732 5.32926 5.86861 4.81182 6.14929C4.29437 6.43188 3.88766 6.8214 3.59362 7.31785C3.29766 7.8162 3.15063 8.37566 3.15063 9.00003C3.15063 9.62441 3.29766 10.1839 3.59362 10.6822C3.88957 11.1806 4.29437 11.5701 4.81182 11.8508C5.32926 12.1334 5.91163 12.2728 6.56083 12.2728C7.21003 12.2728 7.79239 12.1315 8.30984 11.8508C8.82729 11.5682 9.23399 11.1787 9.52804 10.6822C9.824 10.1839 9.97102 9.62441 9.97102 9.00003V5.72732C9.97102 5.72732 6.68303 5.72732 6.56083 5.72732ZM7.9356 9.95855C7.78858 10.2316 7.59 10.4435 7.33987 10.5925C7.08782 10.7433 6.80714 10.8178 6.49782 10.8178C6.1885 10.8178 5.90781 10.7433 5.65577 10.5925C5.40373 10.4435 5.20515 10.2316 5.06004 9.95855C4.91301 9.68551 4.84046 9.37237 4.84046 9.01913C4.84046 8.66589 4.91301 8.35275 5.06004 8.0797C5.20515 7.80666 5.40564 7.59471 5.65577 7.44578C5.90781 7.29684 6.18659 7.22047 6.49782 7.22047C6.80714 7.22047 7.08782 7.29494 7.33987 7.44578C7.59191 7.59662 7.79048 7.80666 7.9356 8.0797C8.08071 8.35275 8.15518 8.66589 8.15518 9.01913C8.15518 9.37428 8.08262 9.68742 7.9356 9.95855Z" fill="white"/>
                            <path d="M10.9945 9.8707L10.3319 10.6058V8.43101L12.7607 5.72729H14.714L12.1516 8.60859L14.8496 12.2326H12.7874L10.9945 9.8707Z" fill="white"/>
                        </svg>