<svg viewBox="0 0 19 19" fill="none" xmlns="http://www.w3.org/2000/svg">
<path d="M15.8881 0H2.92462C1.31175 0 0 1.31175 0 2.92462L0.12 16.0754C0.12 17.6882 1.43175 19 3.04463 19H15.7681C17.3815 19 18.6928 17.6882 18.6928 16.0754L18.8127 2.92462C18.8123 1.31175 17.501 0 15.8881 0ZM9.40592 9.62683C6.55508 9.62683 4.23546 6.73154 4.23546 3.17258C4.23546 2.91912 4.44079 2.71425 4.69379 2.71425C4.94679 2.71425 5.15212 2.91912 5.15212 3.17258C5.15212 6.226 7.06063 8.71017 9.40592 8.71017C11.7521 8.71017 13.6606 6.226 13.6606 3.17258C13.6606 2.91912 13.8655 2.71425 14.119 2.71425C14.372 2.71425 14.5773 2.91912 14.5773 3.17258C14.5773 6.73154 12.2577 9.62683 9.40592 9.62683Z" fill="white"/>
</svg>
