<svg width="30" height="30" viewBox="0 0 30 30" fill="none" xmlns="http://www.w3.org/2000/svg">
<path d="M8.79992 8C8.59557 8 8.38845 8.07936 8.23293 8.23484C7.92236 8.54533 7.92236 9.05804 8.23293 9.3683L13.866 15L8.23293 20.6317C7.92236 20.9422 7.92236 21.4549 8.23293 21.7652C8.38335 21.9156 8.59349 22 8.79992 22C9.00635 22 9.21625 21.9158 9.36691 21.7652L15 16.1337L20.6331 21.7652C20.7835 21.9156 20.9937 22 21.2001 22C21.403 22 21.6067 21.9255 21.7671 21.7652C22.0776 21.4547 22.0776 20.942 21.7671 20.6317L16.1342 15L21.7671 9.3683C22.0776 9.05781 22.0776 8.5451 21.7671 8.23484C21.4565 7.92457 20.9437 7.92434 20.6333 8.23484L15.0002 13.8665L9.36714 8.23484C9.21185 8.07959 9.00473 8 8.80015 8H8.79992Z" fill="black"/>
</svg>
