<svg width="15" height="14" viewBox="0 0 15 14" fill="none" xmlns="http://www.w3.org/2000/svg">
<circle cx="7.5" cy="7" r="6.5" fill="white" stroke="#66D7DB"/>
<path d="M5.60354 4.45314C5.09861 4.45314 4.64566 4.56304 4.2432 4.78135C3.84074 5.00114 3.52442 5.3041 3.29571 5.69022C3.06552 6.07783 2.95117 6.51296 2.95117 6.99859C2.95117 7.48421 3.06552 7.91935 3.29571 8.30695C3.5259 8.69456 3.84074 8.99752 4.2432 9.21583C4.64566 9.43562 5.09861 9.54404 5.60354 9.54404C6.10848 9.54404 6.56143 9.43414 6.96389 9.21583C7.36635 8.99604 7.68267 8.69308 7.91138 8.30695C8.14157 7.91935 8.25592 7.48421 8.25592 6.99859V4.45314C8.25592 4.45314 5.69859 4.45314 5.60354 4.45314ZM6.67281 7.7441C6.55846 7.95647 6.40401 8.12132 6.20946 8.23715C6.01343 8.35448 5.79512 8.4124 5.55454 8.4124C5.31395 8.4124 5.09564 8.35448 4.89961 8.23715C4.70358 8.12132 4.54913 7.95647 4.43626 7.7441C4.32191 7.53174 4.26548 7.28818 4.26548 7.01344C4.26548 6.7387 4.32191 6.49514 4.43626 6.28277C4.54913 6.07041 4.70506 5.90556 4.89961 5.78972C5.09564 5.67389 5.31247 5.61448 5.55454 5.61448C5.79512 5.61448 6.01343 5.6724 6.20946 5.78972C6.40549 5.90705 6.55994 6.07041 6.67281 6.28277C6.78568 6.49514 6.8436 6.7387 6.8436 7.01344C6.8436 7.28967 6.78716 7.53322 6.67281 7.7441Z" fill="#00BCC3"/>
<path d="M9.05195 7.67577L8.53662 8.24753V6.55602L10.4257 4.45312H11.9449L9.95192 6.69413L12.0503 9.51283H10.4464L9.05195 7.67577Z" fill="#00BCC3"/>
</svg>
