<svg viewBox="0 0 18 20" fill="none" xmlns="http://www.w3.org/2000/svg">
<path d="M6.41634 20C3.43973 19.9829 0.977539 13.9066 0.977539 10.8121C0.977539 5.75724 4.76954 4.6506 6.23095 4.6506C6.88954 4.6506 7.59278 4.90924 8.21306 5.1381C8.64681 5.29775 9.0954 5.46256 9.3449 5.46256C9.49423 5.46256 9.84615 5.32236 10.1568 5.19935C10.8195 4.93556 11.644 4.60771 12.6042 4.60771H12.6099C13.3268 4.60771 15.5006 4.76506 16.8076 6.72771L17.1137 7.18775L16.6731 7.52022C16.0437 7.99514 14.8953 8.86147 14.8953 10.5775C14.8953 12.61 16.1959 13.3916 16.8207 13.7676C17.0965 13.9335 17.3821 14.1046 17.3821 14.4788C17.3821 14.7232 15.432 19.9697 12.6001 19.9697C11.9072 19.9697 11.4174 19.7614 10.9854 19.5777C10.5482 19.3918 10.1711 19.2316 9.54798 19.2316C9.23212 19.2316 8.83271 19.3809 8.40986 19.5394C7.832 19.7551 7.17794 20 6.43579 20H6.41634Z" fill="white"/>
<path d="M12.9042 0C12.9779 2.65922 11.0762 4.50407 9.17663 4.38837C8.86362 2.26621 11.0759 0 12.9042 0Z" fill="white"/>
</svg>
