<svg width="17" height="17" viewBox="0 0 17 17" fill="none"
    xmlns="http://www.w3.org/2000/svg">
    <g clip-path="url(#clip0)">
        <path d="M14.5082 2.49027C11.1881 -0.82984 5.81431 -0.830339 2.49373 2.49027C-0.176129 5.16009 -0.68064 9.12992 0.89779 12.2914L0.022712 16.1406C-0.0910298 16.6409 0.357358 17.0895 0.857849 16.9757L4.70703 16.1006C10.3037 18.8949 16.9965 14.8495 16.9965 8.49751C16.9965 6.22833 16.1128 4.09491 14.5082 2.49027ZM10.2731 10.6131H4.95654C4.57116 10.6131 4.25874 10.3006 4.25874 9.91525C4.25874 9.52986 4.57116 9.21745 4.95654 9.21745H10.2731C10.6585 9.21745 10.9709 9.52986 10.9709 9.91525C10.9709 10.3006 10.6585 10.6131 10.2731 10.6131ZM12.0454 7.77755H4.95654C4.57116 7.77755 4.25874 7.46513 4.25874 7.07975C4.25874 6.69436 4.57116 6.38194 4.95654 6.38194H12.0454C12.4307 6.38194 12.7432 6.69436 12.7432 7.07975C12.7432 7.46513 12.4307 7.77755 12.0454 7.77755Z" fill="white"/>
    </g>
    <defs>
        <clipPath id="clip0">
            <rect width="17" height="17" fill="white"/>
        </clipPath>
    </defs>
</svg>
