<svg viewBox="0 0 14 15" fill="none" xmlns="http://www.w3.org/2000/svg">
<path d="M13.315 5.54697L7.78911 0.902234C7.76968 0.882804 7.74831 0.869203 7.72791 0.852687L7.69973 0.827428C7.68419 0.814799 7.6667 0.810913 7.6514 0.800226C7.5783 0.746794 7.50471 0.698219 7.418 0.66616C7.34611 0.638958 7.27058 0.630214 7.19456 0.620499C7.15958 0.617585 7.12752 0.600098 7.09061 0.600098C7.08769 0.600098 7.08478 0.601069 7.08186 0.601069C6.85453 0.600098 6.6272 0.677817 6.44359 0.833257L0.939082 5.55377C0.532024 5.90253 0.484421 6.51555 0.83416 6.92358C1.18293 7.33064 1.79691 7.37824 2.20397 7.0285L6.11911 3.671V13.2286C6.11911 13.7649 6.55434 14.2001 7.09061 14.2001C7.62687 14.2001 8.0621 13.7649 8.0621 13.2286V3.66906L12.0666 7.03336C12.2493 7.18685 12.4708 7.26166 12.6913 7.26166C12.9682 7.26166 13.2429 7.14411 13.4362 6.91483C13.7803 6.50583 13.7269 5.89185 13.315 5.54697Z" fill="white"/>
</svg>
