<svg viewBox="0 0 108 16" fill="none" xmlns="http://www.w3.org/2000/svg">
<path d="M8.3502 0.00109665C6.8583 -0.022431 5.3848 0.332957 4.06765 1.03399C2.83014 1.69487 1.79803 2.68307 1.08399 3.89068C0.373495 5.14379 0 6.55971 0 8.00023C0 9.44076 0.373495 10.8567 1.08399 12.1098C1.79775 13.3176 2.82993 14.3059 4.06765 14.9665C5.39293 15.6454 6.86064 15.9994 8.34968 15.9994C9.83873 15.9994 11.3064 15.6454 12.6317 14.9665C13.8694 14.3058 14.9016 13.3176 15.6154 12.1098C16.3454 10.8647 16.7199 9.44334 16.6983 8.00023V0.00109665H8.3502ZM11.8708 10.3C11.5331 10.9411 11.0268 11.4778 10.4064 11.8522C9.78608 12.2266 9.07527 12.4244 8.35069 12.4244C7.62611 12.4244 6.9153 12.2266 6.29494 11.8522C5.67459 11.4778 5.16824 10.9411 4.83056 10.3C4.4775 9.58583 4.29385 8.7999 4.29385 8.00324C4.29385 7.20658 4.4775 6.42063 4.83056 5.70647C5.16466 5.06519 5.66998 4.52906 6.2904 4.15765C6.75442 3.87657 7.27103 3.69337 7.80845 3.6193C8.34588 3.54522 8.89279 3.58184 9.41555 3.72691C9.9383 3.87197 10.4259 4.12242 10.8483 4.46285C11.2707 4.80328 11.619 5.22648 11.8718 5.70647C12.2249 6.42063 12.4085 7.20658 12.4085 8.00324C12.4085 8.7999 12.2239 9.58583 11.8708 10.3Z" fill="#E0E0E0"/>
<path d="M19.448 10.1939L17.8131 11.9997V6.65126L23.7995 0.000976457H28.612L22.2947 7.08621L28.944 15.9992H23.8635L19.448 10.1939Z" fill="#E0E0E0"/>
<path d="M43.4024 7.08621L49.7657 0.000976457H44.9153L39.6268 5.80635L35.1773 0.000976457H30.0599L36.7592 8.91401L30.3938 15.9992H35.2443L40.5327 10.1939L44.9823 15.9992H50.0997L43.4024 7.08621Z" fill="#E0E0E0"/>
<path d="M69.5096 15.5243C69.3506 15.3685 69.2254 15.1815 69.1421 14.975C69.0588 14.7685 69.0192 14.547 69.0257 14.3244C69.0173 14.1024 69.0553 13.881 69.1372 13.6744C69.2192 13.4678 69.3432 13.2805 69.5016 13.1246C69.8304 12.8271 70.2581 12.6625 70.7015 12.6625C71.1449 12.6625 71.5725 12.8271 71.9013 13.1246C72.0579 13.2815 72.1804 13.4691 72.261 13.6756C72.3417 13.882 72.3789 14.1029 72.3703 14.3244C72.3687 14.6546 72.2701 14.9771 72.0866 15.2516C71.9032 15.5262 71.643 15.7407 71.3385 15.8686C71.0341 15.9965 70.6988 16.032 70.3743 15.9708C70.0498 15.9096 69.7506 15.7543 69.5137 15.5243H69.5096Z" fill="#E0E0E0"/>
<path d="M91.2923 0.000976457L84.562 15.9992H80.1875L73.4793 0.000976457H78.2788L82.5413 10.4229L86.8948 0.000976457H91.2923Z" fill="#E0E0E0"/>
<path d="M55.4832 12.4996V9.57395H62.2604V6.1913H55.4832V3.4916H63.4583V0.000976457H51.2126V15.9992H62.0294L63.4583 12.4996H55.4832Z" fill="#E0E0E0"/>
<path d="M107.992 0.000976457V15.9992H104.177L96.9457 7.47417V15.9992H92.4052V0.000976457H96.2197L103.451 8.52606V0.000976457H107.992Z" fill="#E0E0E0"/>
</svg>
