<svg width="64" height="16" viewBox="0 0 64 16" fill="none" xmlns="http://www.w3.org/2000/svg">
<path d="M8.35084 0.00110847C6.85939 -0.0225427 5.38622 0.332631 4.06845 1.03356C2.83146 1.6935 1.79906 2.6816 1.08398 3.88999C0.373548 5.14226 0 6.55827 0 7.99904C0 9.43981 0.373548 10.8558 1.08398 12.1081C1.79877 13.3167 2.83125 14.3049 4.06845 14.9645C5.39459 15.6436 6.86237 15.9976 8.35137 15.9976C9.84036 15.9976 11.3081 15.6436 12.6343 14.9645C13.8714 14.3048 14.9039 13.3166 15.6188 12.1081C16.349 10.8638 16.724 9.44215 16.7027 7.99853V0.00110847H8.35084ZM11.8713 10.2962C11.5367 10.9377 11.0316 11.4738 10.4118 11.8449C9.78426 12.2049 9.07381 12.3942 8.35084 12.3942C7.62788 12.3942 6.91745 12.2049 6.28988 11.8449C5.66993 11.474 5.16473 10.9379 4.83047 10.2962C4.47739 9.58241 4.29367 8.79636 4.29367 7.99953C4.29367 7.20271 4.47739 6.41667 4.83047 5.70285C5.16471 5.06089 5.66989 4.52446 6.28988 4.15317C6.91749 3.7933 7.6279 3.60399 8.35084 3.60399C9.07379 3.60399 9.78423 3.7933 10.4118 4.15317C11.0317 4.52467 11.5368 5.06104 11.8713 5.70285C12.2243 6.41667 12.4081 7.20271 12.4081 7.99953C12.4081 8.79636 12.2243 9.58241 11.8713 10.2962Z" fill="white"/>
<path d="M19.6337 10.194L17.9987 11.9998V6.6513L23.9858 0.00111204H28.7981L22.4799 7.08654L29.1301 16H24.0544L19.6337 10.194Z" fill="white"/>
<path d="M43.7486 7.08654L50.1132 0.00111204H45.2626L39.9739 5.8061L35.5229 0.00111204H30.4048L37.1025 8.91458L30.7379 16H35.5885L40.8772 10.195L45.3282 16H50.4463L43.7486 7.08654Z" fill="white"/>
<path d="M56.0246 12.5018V9.57656H62.802V6.19377H56.0246V3.49726H63.998V0.00111204H51.7533V15.9939H62.5709L64 12.4978L56.0246 12.5018Z" fill="white"/>
</svg>
